# xmcd
#
# Track frame offsets: 
#        150
#        18765
#        39257
#        49642
#        69165
#        88810
#        105150
#        123375
#        141392
#        166947
#        184467
#        200857
#
# Disc length: 3121 seconds
#
# Revision: 0
# Processed by: cddbd v1.5.2PL0 Copyright (c) Steve Scherf et al.
# Submitted via: ExactAudioCopy v0.99pb5
#
DISCID=9e0c2f0c
DTITLE=Luther Allison - Love Me Mama
DYEAR=1996
DGENRE=Blues
TTITLE0=Why i Love The Blues
TTITLE1=Little Red Rooster
TTITLE2=4:00 IN The Morning (Waiting On You)
TTITLE3=You Done Lost Your Goot Thing (Alt)
TTITLE4=Five Long Years
TTITLE5=Dust My Broom
TTITLE6=Every Night About This Time
TTITLE7=Love Me Mama
TTITLE8=The Sky Is Crying
TTITLE9=Help Me
TTITLE10=You Done Lost Your Good Thing Now
TTITLE11=Bloomington Closer
EXTD=
EXTT0=
EXTT1=
EXTT2=
EXTT3=
EXTT4=
EXTT5=
EXTT6=
EXTT7=
EXTT8=
EXTT9=
EXTT10=
EXTT11=
PLAYORDER=
